<svg xmlns="http://www.w3.org/2000/svg" xmlns:xlink="http://www.w3.org/1999/xlink" width="2000" zoomAndPan="magnify" viewBox="0 0 1500 1499.999933" height="2000" preserveAspectRatio="xMidYMid meet" version="1.0"><path fill="#ff5a36" d="M 5.917969 1391.464844 C 6.847656 1389.015625 17.976562 1369.273438 30.652344 1347.59375 C 64.777344 1289.230469 77.039062 1268.15625 112.789062 1206.441406 C 130.617188 1175.667969 152.925781 1137.328125 162.363281 1121.242188 C 171.800781 1105.15625 193.007812 1068.535156 209.484375 1039.859375 C 225.964844 1011.183594 248.816406 971.699219 260.265625 952.117188 C 271.714844 932.53125 288.050781 904.492188 296.566406 889.804688 C 332.632812 827.601562 404.730469 703.339844 439.695312 643.109375 C 460.402344 607.441406 495.589844 546.785156 517.890625 508.316406 C 589.496094 384.816406 605.300781 357.597656 623.503906 326.472656 C 633.320312 309.6875 645.636719 288.515625 650.878906 279.425781 C 656.117188 270.332031 672.648438 241.71875 687.613281 215.84375 C 741.167969 123.226562 748.183594 111.570312 750.335938 111.570312 C 751.355469 111.570312 757.230469 120.4375 763.390625 131.277344 C 769.550781 142.121094 785.257812 169.300781 798.292969 191.679688 C 811.332031 214.0625 831.925781 249.539062 844.066406 270.523438 C 856.203125 291.503906 883.085938 337.855469 903.8125 373.523438 C 924.535156 409.195312 947.414062 448.679688 954.648438 461.265625 C 969.761719 487.5625 1014.648438 564.597656 1039.851562 607.503906 C 1049.300781 623.589844 1065.898438 652.203125 1076.742188 671.085938 C 1087.582031 689.96875 1104.15625 718.582031 1113.574219 734.667969 C 1122.992188 750.753906 1148.226562 794.242188 1169.65625 831.3125 C 1191.082031 868.378906 1213.390625 906.71875 1219.234375 916.511719 C 1232.144531 938.15625 1264.179688 993.40625 1284.851562 1029.683594 C 1293.222656 1044.371094 1321.8125 1093.585938 1348.386719 1139.046875 C 1430.039062 1278.730469 1491.84375 1385.945312 1494.085938 1391.792969 C 1495.539062 1395.574219 1477.121094 1395.910156 1270.953125 1395.847656 L 1046.242188 1395.785156 L 992.832031 1303.929688 C 963.457031 1253.410156 936.183594 1206.230469 932.222656 1199.085938 C 928.261719 1191.941406 918.957031 1175.796875 911.550781 1163.207031 C 904.140625 1150.617188 896.488281 1137.195312 894.546875 1133.378906 C 890.332031 1125.089844 896.820312 1122.148438 829.503906 1162.878906 C 802.617188 1179.144531 779.441406 1192.453125 778.003906 1192.453125 C 776.226562 1192.453125 775.382812 1122.457031 775.382812 975.003906 C 775.382812 855.410156 775.996094 757.554688 776.746094 757.554688 C 777.496094 757.554688 790.371094 764.839844 805.359375 773.742188 C 860.96875 806.78125 877.113281 815.917969 877.113281 814.367188 C 877.113281 813.492188 869.195312 798.921875 859.519531 781.988281 C 807.355469 690.703125 760.335938 607.789062 756.601562 600.511719 C 754.269531 595.964844 751.480469 592.246094 750.402344 592.246094 C 748.613281 592.246094 735.007812 615.578125 689.605469 696.519531 C 680.585938 712.605469 668.882812 733.203125 663.605469 742.296875 C 632.796875 795.371094 622.429688 813.996094 623.246094 814.8125 C 623.75 815.316406 633.296875 810.269531 644.457031 803.597656 C 700.53125 770.066406 721.914062 757.554688 723.15625 757.554688 C 723.90625 757.554688 724.519531 855.410156 724.519531 975.003906 C 724.519531 1138.359375 723.785156 1192.453125 721.566406 1192.453125 C 719.941406 1192.453125 701.34375 1181.984375 680.238281 1169.1875 C 624.324219 1135.289062 613.273438 1128.867188 610.914062 1128.90625 C 609.75 1128.921875 601.996094 1140.652344 593.679688 1154.972656 C 585.359375 1169.292969 560.914062 1211.335938 539.351562 1248.40625 C 517.789062 1285.472656 489.765625 1333.828125 477.082031 1355.859375 L 454.019531 1395.914062 L 229.125 1395.914062 C 15.992188 1395.914062 4.320312 1395.683594 5.917969 1391.464844 Z M 420.675781 1260.484375 C 433.003906 1239.152344 448.472656 1212.546875 455.054688 1201.355469 C 461.632812 1190.164062 479.019531 1160.355469 493.6875 1135.117188 C 508.359375 1109.875 521.90625 1086.75 523.792969 1083.730469 C 525.679688 1080.710938 526.695312 1077.832031 526.046875 1077.335938 C 525.035156 1076.558594 489.621094 1055.945312 485.113281 1053.511719 C 484.226562 1053.03125 470.226562 1075.800781 454 1104.109375 L 424.496094 1155.578125 L 406.015625 1166.101562 C 395.851562 1171.890625 364.648438 1190.121094 336.671875 1206.609375 C 271.417969 1245.074219 264.113281 1249.183594 263.011719 1248.0625 C 262.511719 1247.550781 266.714844 1239.121094 272.355469 1229.332031 C 277.996094 1219.539062 291.195312 1196.648438 301.6875 1178.464844 C 312.179688 1160.28125 325.042969 1137.964844 330.273438 1128.871094 C 335.507812 1119.78125 353.039062 1089.453125 369.230469 1061.476562 C 385.425781 1033.5 399.367188 1008.792969 400.214844 1006.570312 C 401.367188 1003.546875 396.4375 999.386719 380.65625 990.066406 C 369.054688 983.210938 358.753906 977.589844 357.765625 977.574219 C 356.183594 977.550781 308.859375 1058.507812 277.5 1114.882812 C 271.277344 1126.074219 260.726562 1144.386719 254.054688 1155.578125 C 235.199219 1187.214844 172.632812 1296.695312 172.632812 1298.054688 C 172.632812 1298.722656 223.398438 1299.269531 285.445312 1299.269531 L 398.257812 1299.269531 Z M 1326.222656 1295.121094 C 1325.347656 1292.839844 1318.511719 1280.535156 1311.03125 1267.78125 C 1286.625 1226.152344 1197.574219 1071.253906 1167.574219 1018.242188 C 1155.699219 997.257812 1145.160156 979.164062 1144.148438 978.027344 C 1142.652344 976.34375 1107.652344 995.203125 1100.136719 1001.742188 C 1099.007812 1002.722656 1116.046875 1034.875 1137.996094 1073.195312 C 1169.511719 1128.203125 1231.367188 1235.984375 1237.453125 1246.496094 C 1240.09375 1251.058594 1232.246094 1247.320312 1205.003906 1231.035156 C 1189.023438 1221.484375 1154.773438 1201.28125 1128.894531 1186.144531 C 1103.019531 1171.003906 1079.851562 1156.910156 1077.417969 1154.816406 C 1072.960938 1150.988281 1062.628906 1133.820312 1036.546875 1086.910156 C 1014.988281 1048.136719 1019.101562 1050.386719 995.375 1064.375 C 984.183594 1070.972656 974.640625 1076.648438 974.167969 1076.992188 C 973.691406 1077.332031 978.136719 1086 984.042969 1096.25 C 995.265625 1115.722656 1034.664062 1183.621094 1048.71875 1207.714844 C 1053.207031 1215.40625 1066.953125 1239.152344 1079.261719 1260.484375 L 1101.644531 1299.269531 L 1214.730469 1299.269531 C 1318.257812 1299.269531 1327.679688 1298.917969 1326.222656 1295.121094 Z M 672.699219 898.175781 C 672.132812 897.613281 654.359375 907.515625 633.199219 920.179688 C 612.042969 932.847656 593.035156 943.214844 590.96875 943.214844 C 588.210938 943.214844 483.570312 882.949219 478.3125 878.335938 C 477.429688 877.554688 520.335938 800.355469 580.78125 693.976562 C 593.101562 672.292969 612.886719 637.386719 624.75 616.40625 C 636.613281 595.421875 658.761719 556.394531 673.972656 529.675781 L 701.628906 481.097656 L 701.628906 430.558594 C 701.628906 387.011719 701.148438 380.714844 698.140625 385.039062 C 696.226562 387.796875 667.738281 436.980469 634.839844 494.328125 C 601.9375 551.679688 560.453125 623.78125 542.648438 654.554688 C 418.414062 869.277344 405.5625 892.132812 407.761719 894.40625 C 408.695312 895.375 468.617188 931.644531 540.921875 975.003906 L 672.382812 1053.847656 L 673.054688 976.527344 C 673.425781 934 673.265625 898.742188 672.699219 898.175781 Z M 1091.6875 894.863281 C 1094.289062 892.386719 1092.730469 889.492188 1033.539062 786.804688 C 1008.542969 743.441406 946.457031 635.289062 895.570312 546.464844 C 844.683594 457.644531 801.910156 383.824219 800.515625 382.425781 C 798.839844 380.738281 798.25 397.433594 798.765625 432.019531 L 799.542969 484.15625 L 839.179688 552.824219 C 860.976562 590.589844 888.050781 638.085938 899.34375 658.371094 C 910.636719 678.652344 935.632812 723.285156 954.894531 757.554688 C 974.152344 791.828125 997.238281 832.90625 1006.195312 848.839844 C 1023.539062 879.695312 1023.425781 878.183594 1008.933594 886.042969 C 1005.199219 888.066406 982.042969 901.757812 957.472656 916.46875 C 932.902344 931.179688 910.902344 943.214844 908.585938 943.214844 C 906.265625 943.214844 887.402344 932.914062 866.664062 920.324219 C 845.929688 907.734375 828.351562 897.4375 827.605469 897.4375 C 826.859375 897.4375 826.246094 932.804688 826.246094 976.03125 L 826.246094 1054.625 L 957.863281 975.796875 C 1030.25 932.441406 1090.46875 896.023438 1091.683594 894.863281 Z M 1091.6875 894.863281 " fill-opacity="1" fill-rule="nonzero"/></svg>